TITLE "Ben Folds Live"
PERFORMER "Ben Folds"
CATALOG 5099750976623
REM GENRE "Alternative"
REM DATE "2002"
REM DISCID FE10B511
FILE "Ben Folds Live.flac" WAVE
  TRACK 01 AUDIO
    TITLE "One Angry Dwarf and 200 Solemn Faces"
    ISRC USSM10211088
    INDEX 01 00:00:00
  TRACK 02 AUDIO
    TITLE "Zak and Sara"
    ISRC USSM10211086
    INDEX 01 04:17:02
  TRACK 03 AUDIO
    TITLE "Silver Street"
    ISRC USSM10211084
    INDEX 01 07:41:20
  TRACK 04 AUDIO
    TITLE "Best Imitation of Myself"
    ISRC USSM10211075
    INDEX 01 11:23:07
  TRACK 05 AUDIO
    TITLE "Not the Same"
    ISRC USSM10211070
    INDEX 01 14:36:35
  TRACK 06 AUDIO
    TITLE "Jane"
    ISRC USSM10211079
    INDEX 01 19:07:40
  TRACK 07 AUDIO
    TITLE "One Down"
    ISRC USSM10211080
    INDEX 01 21:41:40
  TRACK 08 AUDIO
    TITLE "Fred Jones Part 2"
    ISRC USSM10211072
    INDEX 01 25:44:67
  TRACK 09 AUDIO
    TITLE "Brick"
    ISRC USSM10211073
    INDEX 01 30:24:65
  TRACK 10 AUDIO
    TITLE "Narcolepsy"
    ISRC USSM10211077
    INDEX 01 35:10:10
  TRACK 11 AUDIO
    TITLE "Army"
    ISRC USSM10211078
    INDEX 01 41:14:30
  TRACK 12 AUDIO
    TITLE "The Last Polka"
    ISRC USSM10211085
    INDEX 01 44:56:22
  TRACK 13 AUDIO
    TITLE "Tiny Dancer"
    ISRC USSM10211087
    INDEX 01 48:52:07
  TRACK 14 AUDIO
    TITLE "Rock This Bitch"
    ISRC USSM10211083
    INDEX 01 54:15:52
  TRACK 15 AUDIO
    TITLE "Philosophy"
    ISRC USSM10211298
    INDEX 01 55:32:65
  TRACK 16 AUDIO
    TITLE "The Luckiest"
    ISRC USSM10211081
    INDEX 01 62:49:62
  TRACK 17 AUDIO
    TITLE "Emaline"
    ISRC USSM10211082
    INDEX 01 67:29:10
